<svg width="40" height="40" viewBox="0 0 40 40" fill="none" xmlns="http://www.w3.org/2000/svg">
<rect x="0.5" y="0.5" width="39" height="39" rx="9.5" fill="white" stroke="#F2F2F2"/>
<path d="M25.977 20.6018C25.9668 18.8701 26.7514 17.565 28.3357 16.6027C27.4496 15.3332 26.109 14.635 24.3418 14.5004C22.6686 14.3684 20.8379 15.4754 20.1676 15.4754C19.4592 15.4754 17.8393 14.5461 16.5646 14.5461C13.9342 14.5867 11.1387 16.6434 11.1387 20.8277C11.1387 22.0643 11.3646 23.3414 11.8166 24.6566C12.4209 26.3883 14.5994 30.631 16.8719 30.5625C18.0602 30.5346 18.9006 29.7195 20.4469 29.7195C21.9475 29.7195 22.7244 30.5625 24.0498 30.5625C26.3426 30.5295 28.3129 26.6726 28.8867 24.9359C25.8119 23.4861 25.977 20.6906 25.977 20.6018V20.6018ZM23.3084 12.8576C24.5957 11.3291 24.4789 9.9377 24.4408 9.4375C23.3033 9.50352 21.9881 10.2119 21.2391 11.0828C20.4139 12.0172 19.9289 13.1725 20.033 14.475C21.2619 14.5689 22.3842 13.9367 23.3084 12.8576V12.8576Z" fill="#555555"/>
</svg>
