<svg width="40" height="40" viewBox="0 0 40 40" fill="none" xmlns="http://www.w3.org/2000/svg">
<rect x="0.5" y="0.5" width="39" height="39" rx="9.5" fill="#FFFEFE" stroke="#F2F2F2"/>
<path d="M31.6226 17.8783H30.75V17.8333H21V22.1667H27.1224C26.2292 24.6892 23.8291 26.5 21 26.5C17.4103 26.5 14.5 23.5896 14.5 20C14.5 16.4104 17.4103 13.5 21 13.5C22.6569 13.5 24.1644 14.1251 25.3122 15.1461L28.3764 12.0819C26.4415 10.2787 23.8535 9.16666 21 9.16666C15.0173 9.16666 10.1666 14.0173 10.1666 20C10.1666 25.9827 15.0173 30.8333 21 30.8333C26.9827 30.8333 31.8333 25.9827 31.8333 20C31.8333 19.2736 31.7585 18.5646 31.6226 17.8783Z" fill="#FFC107"/>
<path d="M11.4158 14.9576L14.9751 17.5679C15.9381 15.1835 18.2706 13.5 21 13.5C22.657 13.5 24.1644 14.1251 25.3122 15.1461L28.3764 12.0819C26.4416 10.2787 23.8535 9.16666 21 9.16666C16.8389 9.16666 13.2304 11.5159 11.4158 14.9576Z" fill="#FF3D00"/>
<path d="M21 30.8333C23.7982 30.8333 26.3408 29.7625 28.2632 28.021L24.9103 25.1838C23.786 26.0387 22.4123 26.5011 21 26.5C18.1822 26.5 15.7897 24.7033 14.8883 22.1959L11.3556 24.9178C13.1485 28.4262 16.7896 30.8333 21 30.8333Z" fill="#4CAF50"/>
<path d="M31.6226 17.8783H30.75V17.8333H21V22.1667H27.1225C26.6952 23.3672 25.9256 24.4163 24.9087 25.1843L24.9103 25.1832L28.2632 28.0204C28.026 28.236 31.8333 25.4167 31.8333 20C31.8333 19.2736 31.7586 18.5646 31.6226 17.8783Z" fill="#1976D2"/>
</svg>
