<svg width="16" height="16" viewBox="0 0 16 16" fill="none" xmlns="http://www.w3.org/2000/svg">
<path fill-rule="evenodd" clip-rule="evenodd" d="M15.0803 1.49852C15.1126 1.41775 15.1205 1.32927 15.103 1.24405C15.0855 1.15883 15.0434 1.08061 14.9819 1.01909C14.9204 0.957574 14.8422 0.915464 14.757 0.897982C14.6717 0.8805 14.5833 0.888414 14.5025 0.920744L1.57182 6.09319H1.57093L1.16915 6.25319C1.09305 6.28354 1.02683 6.33434 0.977787 6.39997C0.928748 6.4656 0.898803 6.54351 0.891261 6.62509C0.883719 6.70667 0.898874 6.78875 0.935051 6.86225C0.971228 6.93576 1.02702 6.99784 1.09626 7.04163L1.46071 7.27274L1.4616 7.27452L5.9016 10.0994L8.72648 14.5394L8.72826 14.5412L8.95937 14.9056C9.00331 14.9746 9.06542 15.0301 9.13887 15.0661C9.21232 15.102 9.29427 15.117 9.37569 15.1094C9.45712 15.1018 9.53485 15.0718 9.60035 15.0228C9.66585 14.9739 9.71657 14.9078 9.74693 14.8319L15.0803 1.49852ZM13.4509 3.17852L13.8696 2.13141L12.8225 2.55008L6.16115 9.21141L6.4616 9.40252C6.51673 9.43754 6.56347 9.48428 6.59848 9.53941L6.7896 9.83985L13.4509 3.17852Z" fill="#1251C4"/>
</svg>
